<?xml version="1.0" encoding="UTF-8" standalone="no"?>
<!-- Created with Inkscape (http://www.inkscape.org/) -->

<svg
   width="916.41223"
   height="189.90306"
   id="svg2"
   version="1.1"
   inkscape:version="1.2.2 (732a01da63, 2022-12-09)"
   sodipodi:docname="logo.svg"
   inkscape:export-filename="logo_large.png"
   inkscape:export-xdpi="299.99225"
   inkscape:export-ydpi="299.99225"
   xmlns:inkscape="http://www.inkscape.org/namespaces/inkscape"
   xmlns:sodipodi="http://sodipodi.sourceforge.net/DTD/sodipodi-0.dtd"
   xmlns="http://www.w3.org/2000/svg"
   xmlns:svg="http://www.w3.org/2000/svg"
   xmlns:rdf="http://www.w3.org/1999/02/22-rdf-syntax-ns#"
   xmlns:cc="http://creativecommons.org/ns#"
   xmlns:dc="http://purl.org/dc/elements/1.1/">
  <defs
     id="defs4">
    <clipPath
       id="clipPath3241"
       clipPathUnits="userSpaceOnUse">
      <path
         id="path3243"
         d="M 971.996,6971.67 H 4345 V 225.672 H 971.996 Z" />
    </clipPath>
  </defs>
  <sodipodi:namedview
     id="base"
     pagecolor="#ffffff"
     bordercolor="#666666"
     borderopacity="1.0"
     inkscape:pageopacity="0.0"
     inkscape:pageshadow="2"
     inkscape:zoom="0.7"
     inkscape:cx="459.28571"
     inkscape:cy="265"
     inkscape:document-units="px"
     inkscape:current-layer="layer5"
     showgrid="false"
     inkscape:window-width="1517"
     inkscape:window-height="1062"
     inkscape:window-x="218"
     inkscape:window-y="11"
     inkscape:window-maximized="0"
     inkscape:showpageshadow="2"
     inkscape:pagecheckerboard="0"
     inkscape:deskcolor="#d1d1d1" />
  <metadata
     id="metadata7">
    <rdf:RDF>
      <cc:Work
         rdf:about="">
        <dc:format>image/svg+xml</dc:format>
        <dc:type
           rdf:resource="http://purl.org/dc/dcmitype/StillImage" />
      </cc:Work>
    </rdf:RDF>
  </metadata>
  <g
     inkscape:groupmode="layer"
     id="g4933"
     inkscape:label="color"
     style="display:inline"
     transform="translate(-196.0809,-274.1659)">
    <path
       sodipodi:nodetypes="ccccc"
       inkscape:connector-curvature="0"
       id="path4935"
       d="m 233.75,275.93361 c 33.0019,16.85925 57.50182,20.69491 92.5,26.78571 -6.48315,42.68379 -11.82017,102.9594 -12.5,153.57143 -37.25171,-7.89133 -75.62188,-20.35361 -110.17857,-45.53571 1.42999,-48.92068 15.20405,-91.40111 30.17857,-134.82143 z"
       style="display:inline;fill:#b90d00;fill-opacity:1;stroke:none" />
    <path
       inkscape:connector-curvature="0"
       id="path4937"
       d="m 233.75,275.9375 c -13.68107,39.66981 -26.35245,78.55236 -29.53125,122.28125 1.01666,3.47886 2.20925,6.95288 3.65625,10.375 1.11982,2.64834 2.40945,5.2665 3.84375,7.8125 25.62252,16.96083 53.07991,27.48874 80.4375,34.75 2.27476,-1.10388 4.57408,-2.37557 6.90625,-3.875 5.59323,-3.59607 10.77845,-8.37595 15.3125,-14.15625 1.69217,-45.0159 6.35644,-94.07315 11.875,-130.40625 -34.99818,-6.0908 -59.4981,-9.922 -92.5,-26.78125 z"
       style="fill:#e22700;fill-opacity:1;stroke:none" />
    <path
       inkscape:connector-curvature="0"
       id="path4939"
       d="m 233.75,275.9375 c -11.37886,32.9943 -22.05322,65.44668 -27.15625,100.59375 1.35427,16.9505 6.31773,33.46045 14.625,45.84375 18.77197,11.12328 38.3865,19.09754 58.09375,25.125 5.32157,-1.41524 9.7706,-3.95082 14.90625,-7.875 8.43778,-6.44738 15.94308,-16.00802 21.3125,-30.375 2.20613,-37.89421 6.16501,-76.55032 10.71875,-106.53125 -34.99818,-6.0908 -59.4981,-9.922 -92.5,-26.78125 z"
       style="fill:#fa6d00;fill-opacity:1;stroke:none" />
    <path
       inkscape:connector-curvature="0"
       id="path4941"
       d="m 233.75,275.9375 c -2.48351,7.20121 -4.91462,14.37933 -7.28125,21.5625 2.39022,5.38647 1.1039,13.13118 -0.34375,18.84375 -1.88503,7.43857 -5.10741,13.35623 -8.625,23.71875 -3.51759,10.36252 -5.12404,21.79991 -4.96875,35.65625 0.15529,13.85634 3.6411,30.24678 11.71875,42.03125 2.91549,4.2534 6.14692,8.22822 9.875,11.71875 10.02044,5.11731 20.21809,9.44716 30.5,13.15625 0.009,0.003 0.022,-0.003 0.0312,0 14.67977,-0.32706 29.98778,-11.97534 37.25,-25.3125 8.17461,-15.01278 9.71818,-29.88017 9.96875,-45 0.25057,-15.11983 -1.81565,-29.09266 0.46875,-39.1875 2.2844,-10.09484 3.81663,-16.02566 10.59375,-22.90625 0.85109,-0.86408 1.7208,-1.71196 2.59375,-2.53125 0.24151,-1.66162 0.47378,-3.3559 0.71875,-4.96875 -34.99818,-6.0908 -59.4981,-9.922 -92.5,-26.78125 z"
       style="fill:#fac400;fill-opacity:1;stroke:none" />
    <path
       inkscape:connector-curvature="0"
       id="path4943"
       d="m 233.75,275.9375 c -0.46768,1.35609 -0.91,2.70802 -1.375,4.0625 5.34435,1.33528 9.70406,3.30167 11.625,6.625 4.90345,8.48326 3.07191,16.42108 -1.8125,25.65625 -4.88441,9.23517 -8.54345,13.10744 -16.96875,30.75 -8.4253,17.64256 -8.14947,49.85404 0.5,66.5625 8.64947,16.70846 16.72759,21.10989 26.5,24.09375 9.77242,2.98386 17.40805,2.71065 27.875,-4.28125 10.46695,-6.99189 17.17166,-19.52953 20.65625,-34.28125 3.48459,-14.75172 1.37483,-32.70105 -0.0625,-45.1875 -1.43728,-12.48645 -3.05305,-19.71481 -0.40625,-30.4375 1.77509,-7.19122 7.91596,-13.87018 14.46875,-18.8125 -29.12521,-5.11946 -51.74731,-9.80606 -81,-24.75 z"
       style="fill:#faf380;fill-opacity:1;stroke:none" />
    <path
       style="fill:#affafe;fill-opacity:1;stroke:none"
       d="m 279.30718,323.53712 c 7.72186,12.66901 9.46272,22.59141 12.50064,37.24938 3.03791,14.65797 1.55865,28.82533 -1.38896,37.88072 -2.94761,9.05539 -5.79213,15.63721 -13.00571,21.84455 -7.21358,6.20734 -13.49308,8.37543 -22.98098,6.69225 -9.48789,-1.68318 -16.85419,-8.64235 -20.32932,-14.39467 -3.47512,-5.75231 -6.03168,-11.11247 -7.82868,-19.44544 -1.797,-8.33296 -1.06808,-16.83667 0,-26.01142 1.06808,-9.17475 4.77392,-17.2812 10.10152,-25.12755 5.32761,-7.84634 8.31567,-11.61907 16.28872,-17.67767 7.97305,-6.0586 18.9209,-13.67915 26.64277,-1.01015 z"
       id="path4945"
       inkscape:connector-curvature="0"
       sodipodi:nodetypes="zzzzzzzzzzz" />
    <path
       style="fill:#48a2ff;fill-opacity:1;stroke:none"
       d="m 242.81542,352.2002 c -9.08413,13.24324 -10.60743,22.86406 -10.31339,31.29266 0.29405,8.42861 1.64781,16.29636 10.43965,27.92752 8.79184,11.63116 27.45482,8.3777 34.34519,-6.94479 6.89036,-15.32249 8.71278,-27.98286 0.75762,-47.98224 -7.95516,-19.99938 -26.14494,-17.5364 -35.22907,-4.29315 z"
       id="path4947"
       inkscape:connector-curvature="0"
       sodipodi:nodetypes="zszzzz" />
    <path
       style="fill:#0045ff;fill-opacity:1;stroke:none"
       d="m 268.25415,375.79719 c -2.54749,-9.56194 -10.33054,-13.73262 -16.55394,-9.00208 -8.60636,6.54188 -11.14079,21.47528 -5.09672,29.59927 3.86168,5.19058 9.47118,10.01304 16.13815,3.15672 6.66696,-6.85632 8.06,-14.19197 5.51251,-23.75391 z"
       id="path4949"
       inkscape:connector-curvature="0"
       sodipodi:nodetypes="zsszz" />
    <path
       inkscape:connector-curvature="0"
       id="path4951"
       d="m 313.84375,451.78125 c -1.78878,1.17831 -3.61332,2.2867 -5.4375,3.3125 1.78321,0.39851 3.56511,0.81072 5.34375,1.1875 0.0199,-1.48378 0.0659,-3.0003 0.0937,-4.5 z"
       style="fill:#6e0600;fill-opacity:1;stroke:none" />
  </g>
  <g
     inkscape:groupmode="layer"
     id="layer2"
     inkscape:label="pressure"
     style="display:inline"
     transform="translate(-196.0809,-274.1659)">
    <path
       style="fill:none;stroke:#000000;stroke-width:1px;stroke-linecap:butt;stroke-linejoin:miter;stroke-opacity:1"
       d="m 268.25415,375.79719 c -2.54749,-9.56194 -10.33054,-13.73262 -16.55394,-9.00208 -8.60636,6.54188 -11.14079,21.47528 -5.09672,29.59927 3.86168,5.19058 9.47118,10.01304 16.13815,3.15672 6.66696,-6.85632 8.06,-14.19197 5.51251,-23.75391 z"
       id="path4009"
       inkscape:connector-curvature="0"
       sodipodi:nodetypes="zsszz" />
    <path
       style="fill:none;stroke:#000000;stroke-width:1px;stroke-linecap:butt;stroke-linejoin:miter;stroke-opacity:1"
       d="m 242.81542,352.2002 c -9.08413,13.24324 -10.60743,22.86406 -10.31339,31.29266 0.29405,8.42861 1.64781,16.29636 10.43965,27.92752 8.79184,11.63116 27.45482,8.3777 34.34519,-6.94479 6.89036,-15.32249 8.71278,-27.98286 0.75762,-47.98224 -7.95516,-19.99938 -26.14494,-17.5364 -35.22907,-4.29315 z"
       id="path4011"
       inkscape:connector-curvature="0"
       sodipodi:nodetypes="zszzzz" />
    <path
       style="fill:none;stroke:#000000;stroke-width:1px;stroke-linecap:butt;stroke-linejoin:miter;stroke-opacity:1"
       d="m 279.30718,323.53712 c 7.72186,12.66901 9.46272,22.59141 12.50064,37.24938 3.03791,14.65797 1.55865,28.82533 -1.38896,37.88072 -2.94761,9.05539 -5.79213,15.63721 -13.00571,21.84455 -7.21358,6.20734 -13.49308,8.37543 -22.98098,6.69225 -9.48789,-1.68318 -16.85419,-8.64235 -20.32932,-14.39467 -3.47512,-5.75231 -6.03168,-11.11247 -7.82868,-19.44544 -1.797,-8.33296 -1.06808,-16.83667 0,-26.01142 1.06808,-9.17475 4.77392,-17.2812 10.10152,-25.12755 5.32761,-7.84634 8.31567,-11.61907 16.28872,-17.67767 7.97305,-6.0586 18.9209,-13.67915 26.64277,-1.01015 z"
       id="path4013"
       inkscape:connector-curvature="0"
       sodipodi:nodetypes="zzzzzzzzzzz" />
    <path
       style="fill:none;stroke:#000000;stroke-width:1px;stroke-linecap:butt;stroke-linejoin:miter;stroke-opacity:1"
       d="m 205.43978,275.80741 c 13.02872,2.61928 33.65249,2.34226 38.55594,10.82551 4.90345,8.48326 3.07627,16.42195 -1.80814,25.65712 -4.88441,9.23517 -8.55545,13.11353 -16.98075,30.75609 -8.4253,17.64256 -8.12499,49.85367 0.52448,66.56213 8.64947,16.70846 16.70052,21.09268 26.47293,24.07654 9.77242,2.98386 17.43589,2.70224 27.90284,-4.28966 10.46695,-6.99189 17.17251,-19.52001 20.6571,-34.27173 3.48459,-14.75172 1.36083,-32.68612 -0.0765,-45.17257 -1.43728,-12.48645 -3.06669,-19.73164 -0.41989,-30.45433 2.6468,-10.72269 15.03422,-20.30325 23.95296,-24.69225 8.91874,-4.389 13.54151,-8.89674 20.24122,-13.44101"
       id="path4015"
       inkscape:connector-curvature="0"
       sodipodi:nodetypes="czzzzzzzzzzc" />
    <path
       style="fill:none;stroke:#000000;stroke-width:1px;stroke-linecap:butt;stroke-linejoin:miter;stroke-opacity:1"
       d="m 202.53559,284.64625 c 7.35546,1.7142 14.22229,4.10338 20.65965,8.74449 6.43736,4.64111 4.8024,15.5176 2.91736,22.95617 -1.88503,7.43857 -5.10664,13.36442 -8.62423,23.72694 -3.51759,10.36252 -5.11682,21.79296 -4.96153,35.6493 0.15529,13.85634 3.63141,30.2292 11.70906,42.01367 8.07765,11.78447 18.74269,21.46318 34.93982,24.48002 16.19713,3.01684 34.5468,-9.9029 42.72141,-24.91568 8.17461,-15.01278 9.74014,-29.86086 9.99071,-44.98069 0.25057,-15.11983 -1.83673,-29.11488 0.44767,-39.20972 2.2844,-10.09484 3.83141,-16.02346 10.60853,-22.90405 8.43757,-8.56638 18.05114,-14.76512 26.82128,-21.89865"
       id="path4017"
       inkscape:connector-curvature="0"
       sodipodi:nodetypes="czzzzzzzzzsc" />
    <path
       style="fill:none;stroke:#000000;stroke-width:1px;stroke-linecap:butt;stroke-linejoin:miter;stroke-opacity:1"
       d="m 201.14662,296.13673 c 8.8763,4.89977 14.01116,9.6156 11.84145,23.53482 -2.16971,13.91922 -8.07234,34.12483 -6.48906,55.98189 1.58328,21.85705 9.2116,43.11555 22.20284,55.8233 12.99123,12.70776 24.74784,17.35144 37.34708,17.44557 12.59924,0.0941 19.37589,-2.56653 28.16923,-9.28558 8.79334,-6.71906 16.56499,-16.8278 21.97161,-32.22474 5.40663,-15.39694 5.9429,-36.73497 6.14411,-53.08218 0.20121,-16.34721 3.7907,-28.1088 11.68779,-37.54687 7.89709,-9.43807 11.80873,-13.05212 11.80873,-13.05212"
       id="path4019"
       inkscape:connector-curvature="0"
       sodipodi:nodetypes="czzzzzzzzc" />
    <path
       style="fill:none;stroke:#000000;stroke-width:1px;stroke-linecap:butt;stroke-linejoin:miter;stroke-opacity:1"
       d="m 196.48736,313.04519 c 5.70243,7.96008 3.10502,19.53171 2.75358,35.2605 -0.35143,15.72879 -0.40474,38.93673 8.62514,60.29215 9.02987,21.35542 29.09997,40.09226 47.05431,44.78459 17.95434,4.69232 30.22839,2.82772 44.13661,-6.11432 13.90822,-8.94204 25.32563,-25.07113 30.3543,-46.22791 5.02867,-21.15678 3.98084,-39.72773 6.67862,-54.49105 2.69778,-14.76332 7.83114,-20.61772 7.83114,-20.61772"
       id="path4021"
       inkscape:connector-curvature="0"
       sodipodi:nodetypes="czzzzzzc" />
    <path
       style="fill:none;stroke:#000000;stroke-width:1px;stroke-linecap:butt;stroke-linejoin:miter;stroke-opacity:1"
       d="m 282.59017,463.56952 c 0,0 7.2398,-0.34398 16.92879,-4.18347 9.689,-3.8395 21.84034,-11.79454 28.40847,-19.58744 6.56813,-7.7929 8.07456,-11.39502 8.07456,-11.39502"
       id="path4023"
       inkscape:connector-curvature="0"
       sodipodi:nodetypes="czzc" />
  </g>
  <g
     inkscape:groupmode="layer"
     id="layer3"
     inkscape:label="Frame"
     style="display:inline"
     transform="translate(-196.0809,-274.1659)">
    <path
       style="fill:none;stroke:#000000;stroke-width:2.5;stroke-linecap:butt;stroke-linejoin:miter;stroke-miterlimit:4;stroke-dasharray:none;stroke-opacity:1"
       d="m 233.75,275.93361 c 33.0019,16.85925 57.50182,20.69491 92.5,26.78571 -6.48315,42.68379 -11.82017,102.9594 -12.5,153.57143 -37.25171,-7.89133 -75.62188,-20.35361 -110.17857,-45.53571 1.42999,-48.92068 15.20405,-91.40111 30.17857,-134.82143 z"
       id="path4026"
       inkscape:connector-curvature="0"
       sodipodi:nodetypes="ccccc" />
  </g>
  <g
     inkscape:groupmode="layer"
     id="layer5"
     inkscape:label="Text"
     style="display:inline"
     transform="matrix(1.6423035,0,0,1.6423035,-440.96747,-531.99606)">
    <text
       xml:space="preserve"
       style="font-style:normal;font-weight:normal;line-height:0%;font-family:'Frutiger LT Std 45 Light';-inkscape-font-specification:'Frutiger LT Std 45 Light';letter-spacing:0px;word-spacing:0px;fill:#000000;fill-opacity:1;stroke:none"
       x="378.50681"
       y="406.66681"
       id="text2989-2-2-3-5-8"><tspan
         sodipodi:role="line"
         x="378.50681"
         y="406.66681"
         id="tspan2993-45-7-2-7-9"
         style="font-style:normal;font-variant:normal;font-weight:normal;font-stretch:normal;font-size:95.6736px;line-height:1.25;font-family:'WeblySleek UI Light';-inkscape-font-specification:'WeblySleek UI Light';fill:#f1f1f1;fill-opacity:1">AtmoSwing</tspan></text>
  </g>
</svg>
