<svg width="916.41" height="189.9" version="1.1" xmlns="http://www.w3.org/2000/svg"><g transform="translate(-196.08 -274.17)"><g><path d="m233.75 275.93c33.002 16.859 57.502 20.695 92.5 26.786-6.4832 42.684-11.82 102.96-12.5 153.57-37.252-7.8913-75.622-20.354-110.18-45.536 1.43-48.921 15.204-91.401 30.179-134.82z" fill="#b90d00"/><path d="m233.75 275.94c-13.681 39.67-26.352 78.552-29.531 122.28 1.0167 3.4789 2.2092 6.9529 3.6562 10.375 1.1198 2.6483 2.4094 5.2665 3.8438 7.8125 25.623 16.961 53.08 27.489 80.438 34.75 2.2748-1.1039 4.5741-2.3756 6.9062-3.875 5.5932-3.5961 10.778-8.376 15.312-14.156 1.6922-45.016 6.3564-94.073 11.875-130.41-34.998-6.0908-59.498-9.922-92.5-26.781z" fill="#e22700"/><path d="m233.75 275.94c-11.379 32.994-22.053 65.447-27.156 100.59 1.3543 16.95 6.3177 33.46 14.625 45.844 18.772 11.123 38.386 19.098 58.094 25.125 5.3216-1.4152 9.7706-3.9508 14.906-7.875 8.4378-6.4474 15.943-16.008 21.312-30.375 2.2061-37.894 6.165-76.55 10.719-106.53-34.998-6.0908-59.498-9.922-92.5-26.781z" fill="#fa6d00"/><path d="m233.75 275.94c-2.4835 7.2012-4.9146 14.379-7.2812 21.562 2.3902 5.3865 1.1039 13.131-0.34375 18.844-1.885 7.4386-5.1074 13.356-8.625 23.719s-5.124 21.8-4.9688 35.656 3.6411 30.247 11.719 42.031c2.9155 4.2534 6.1469 8.2282 9.875 11.719 10.02 5.1173 20.218 9.4472 30.5 13.156 9e-3 3e-3 0.022-3e-3 0.0312 0 14.68-0.32706 29.988-11.975 37.25-25.312 8.1746-15.013 9.7182-29.88 9.9688-45s-1.8156-29.093 0.46875-39.188 3.8166-16.026 10.594-22.906c0.85109-0.86408 1.7208-1.712 2.5938-2.5312 0.24151-1.6616 0.47378-3.3559 0.71875-4.9688-34.998-6.0908-59.498-9.922-92.5-26.781z" fill="#fac400"/><path d="m233.75 275.94c-0.46768 1.3561-0.91 2.708-1.375 4.0625 5.3444 1.3353 9.7041 3.3017 11.625 6.625 4.9034 8.4833 3.0719 16.421-1.8125 25.656s-8.5434 13.107-16.969 30.75-8.1495 49.854 0.5 66.562 16.728 21.11 26.5 24.094c9.7724 2.9839 17.408 2.7106 27.875-4.2812 10.467-6.9919 17.172-19.53 20.656-34.281s1.3748-32.701-0.0625-45.188c-1.4373-12.486-3.053-19.715-0.40625-30.438 1.7751-7.1912 7.916-13.87 14.469-18.812-29.125-5.1195-51.747-9.8061-81-24.75z" fill="#faf380"/><path d="m279.31 323.54c7.7219 12.669 9.4627 22.591 12.501 37.249 3.0379 14.658 1.5586 28.825-1.389 37.881s-5.7921 15.637-13.006 21.845-13.493 8.3754-22.981 6.6922c-9.4879-1.6832-16.854-8.6424-20.329-14.395-3.4751-5.7523-6.0317-11.112-7.8287-19.445-1.797-8.333-1.0681-16.837 0-26.011s4.7739-17.281 10.102-25.128c5.3276-7.8463 8.3157-11.619 16.289-17.678s18.921-13.679 26.643-1.0102z" fill="#affafe"/><path d="m242.82 352.2c-9.0841 13.243-10.607 22.864-10.313 31.293 0.29405 8.4286 1.6478 16.296 10.44 27.928s27.455 8.3777 34.345-6.9448c6.8904-15.322 8.7128-27.983 0.75762-47.982s-26.145-17.536-35.229-4.2932z" fill="#48a2ff"/><path d="m268.25 375.8c-2.5475-9.5619-10.331-13.733-16.554-9.0021-8.6064 6.5419-11.141 21.475-5.0967 29.599 3.8617 5.1906 9.4712 10.013 16.138 3.1567 6.667-6.8563 8.06-14.192 5.5125-23.754z" fill="#0045ff"/><path d="m313.84 451.78c-1.7888 1.1783-3.6133 2.2867-5.4375 3.3125 1.7832 0.39851 3.5651 0.81072 5.3438 1.1875 0.0199-1.4838 0.0659-3.0003 0.0937-4.5z" fill="#6e0600"/></g><g fill="none" stroke="#000"><g stroke-width="1px"><path d="m268.25 375.8c-2.5475-9.5619-10.331-13.733-16.554-9.0021-8.6064 6.5419-11.141 21.475-5.0967 29.599 3.8617 5.1906 9.4712 10.013 16.138 3.1567 6.667-6.8563 8.06-14.192 5.5125-23.754z"/><path d="m242.82 352.2c-9.0841 13.243-10.607 22.864-10.313 31.293 0.29405 8.4286 1.6478 16.296 10.44 27.928s27.455 8.3777 34.345-6.9448c6.8904-15.322 8.7128-27.983 0.75762-47.982s-26.145-17.536-35.229-4.2932z"/><path d="m279.31 323.54c7.7219 12.669 9.4627 22.591 12.501 37.249 3.0379 14.658 1.5586 28.825-1.389 37.881s-5.7921 15.637-13.006 21.845-13.493 8.3754-22.981 6.6922c-9.4879-1.6832-16.854-8.6424-20.329-14.395-3.4751-5.7523-6.0317-11.112-7.8287-19.445-1.797-8.333-1.0681-16.837 0-26.011s4.7739-17.281 10.102-25.128c5.3276-7.8463 8.3157-11.619 16.289-17.678s18.921-13.679 26.643-1.0102z"/><path d="m205.44 275.81c13.029 2.6193 33.652 2.3423 38.556 10.826 4.9034 8.4833 3.0763 16.422-1.8081 25.657s-8.5554 13.114-16.981 30.756-8.125 49.854 0.52448 66.562 16.701 21.093 26.473 24.077c9.7724 2.9839 17.436 2.7022 27.903-4.2897 10.467-6.9919 17.173-19.52 20.657-34.272s1.3608-32.686-0.0765-45.173c-1.4373-12.486-3.0667-19.732-0.41989-30.454s15.034-20.303 23.953-24.692 13.542-8.8967 20.241-13.441"/><path d="m202.54 284.65c7.3555 1.7142 14.222 4.1034 20.66 8.7445s4.8024 15.518 2.9174 22.956c-1.885 7.4386-5.1066 13.364-8.6242 23.727s-5.1168 21.793-4.9615 35.649 3.6314 30.229 11.709 42.014 18.743 21.463 34.94 24.48 34.547-9.9029 42.721-24.916 9.7401-29.861 9.9907-44.981-1.8367-29.115 0.44767-39.21 3.8314-16.023 10.609-22.904c8.4376-8.5664 18.051-14.765 26.821-21.899"/><path d="m201.15 296.14c8.8763 4.8998 14.011 9.6156 11.841 23.535s-8.0723 34.125-6.4891 55.982c1.5833 21.857 9.2116 43.116 22.203 55.823 12.991 12.708 24.748 17.351 37.347 17.446 12.599 0.0941 19.376-2.5665 28.169-9.2856 8.7933-6.7191 16.565-16.828 21.972-32.225 5.4066-15.397 5.9429-36.735 6.1441-53.082s3.7907-28.109 11.688-37.547 11.809-13.052 11.809-13.052"/><path d="m196.49 313.05c5.7024 7.9601 3.105 19.532 2.7536 35.26-0.35143 15.729-0.40474 38.937 8.6251 60.292 9.0299 21.355 29.1 40.092 47.054 44.785 17.954 4.6923 30.228 2.8277 44.137-6.1143s25.326-25.071 30.354-46.228 3.9808-39.728 6.6786-54.491 7.8311-20.618 7.8311-20.618"/><path d="m282.59 463.57s7.2398-0.34398 16.929-4.1835c9.689-3.8395 21.84-11.795 28.408-19.587s8.0746-11.395 8.0746-11.395"/></g><path d="m233.75 275.93c33.002 16.859 57.502 20.695 92.5 26.786-6.4832 42.684-11.82 102.96-12.5 153.57-37.252-7.8913-75.622-20.354-110.18-45.536 1.43-48.921 15.204-91.401 30.179-134.82z" stroke-width="2.5"/></g></g><g transform="matrix(1.6423 0 0 1.6423 -440.97 -532)"><g transform="translate(0 4.8712)" fill="#f1f1f1" aria-label="AtmoSwing"><path d="m430.73 406.67-7.6614-20.835h-29.057l-7.6614 20.835h-5.092l25.273-66.99h4.3913l24.993 66.99zm-20.555-56.059q-0.51387-1.4015-0.84088-2.7562-0.32701-1.1679-0.70074-2.3358h-0.18686q-0.79416 3.0832-1.5416 4.9986l-11.258 31.066h25.834z"/><path d="m463.34 406.01q-3.3635 1.5883-6.3066 1.5883-10.604 0-10.604-12.707v-32.14h-8.5957v-3.9241h8.5957v-12.426q1.0278-0.37372 2.1489-0.74745 1.1212-0.32701 2.1489-0.70073v13.875h12.613v3.9241h-12.613v31.58q0 4.9519 1.5416 7.1942 1.5883 2.1956 5.3256 2.1956 2.6628 0 5.746-1.7285z"/><path d="m532.81 406.67v-28.777q0-9.0161-2.8497-12.66-2.8029-3.6438-8.9227-3.6438-5.6526 0-9.7636 4.8584-4.111 4.8584-4.111 12.193v28.029h-4.2978v-29.104q0-15.977-12.146-15.977-5.8395 0-9.7168 4.9051-3.8774 4.8584-3.8774 12.613v27.562h-4.2978v-47.837h4.2978v7.9417h0.18686q4.9986-9.1096 14.622-9.1096 5.2322 0 8.9227 3.0365 3.7372 2.9898 5.0453 7.895 2.2424-5.1854 6.4-8.0351 4.2044-2.8964 9.1095-2.8964 15.696 0 15.696 19.434v29.571z"/><path d="m570.65 407.83q-10.464 0-16.584-6.8672-6.073-6.9139-6.073-17.939 0-11.912 6.3533-18.64 6.4-6.727 16.818-6.727 10.231 0 16.164 6.6803 5.9329 6.6803 5.9329 18.499 0 11.165-6.073 18.079-6.0263 6.9139-16.537 6.9139zm0.32701-46.248q-8.4555 0-13.501 5.6993-4.9986 5.6993-4.9986 15.837 0 9.3898 4.9051 15.089t13.407 5.6993q8.6424 0 13.314-5.6059 4.6716-5.6059 4.6716-15.556 0-10.231-4.6716-15.696-4.6248-5.4657-13.127-5.4657z"/><path d="m603.96 404.28v-5.2789q7.1942 4.5781 14.575 4.5781 7.8482 0 11.912-3.2234 4.0643-3.2701 4.0643-9.1096 0-5.1387-2.7562-8.1752-2.7095-3.0832-11.819-8.3621-10.184-5.9329-12.894-9.9037-2.7095-4.0175-2.7095-9.2497 0-7.1008 5.5124-12.053 5.5124-4.9518 14.715-4.9518 5.9796 0 11.959 2.0088v4.8584q-5.8862-2.6628-12.566-2.6628-6.8205 0-10.838 3.457-3.9708 3.457-3.9708 8.7825 0 5.1387 2.7095 8.1752 2.7562 3.0365 11.819 8.2687 9.3898 5.3256 12.473 9.4833 3.13 4.111 3.13 9.4833 0 7.7081-5.3723 12.566-5.3256 4.8584-15.089 4.8584-3.457 0-7.9884-1.0745-4.4847-1.0745-6.8672-2.4759z"/><path d="m693.23 406.67h-4.0175l-10.418-36.064q-0.42044-1.4949-0.74745-4.0176h-0.23358q-0.0934 1.0745-0.93431 3.9241l-11.679 36.158h-4.0175l-14.435-47.837h4.765l11.118 38.167q0.42044 1.4949 0.65402 4.0176h0.37372q0.0934-1.3548 0.8876-4.0176l12.146-38.167h2.9431l10.838 38.167q0.37373 1.3548 0.65402 4.0176h0.37373q0-1.3548 0.79416-4.0176l11.352-38.167h4.438z"/><path d="m719.53 346.78q-1.4015 0-2.4759-1.0278-1.0745-1.0277-1.0745-2.6161 0-1.5416 1.0745-2.4759 1.1212-0.98103 2.4759-0.98103 1.4482 0 2.5226 0.93432 1.1212 0.93431 1.1212 2.5226 0 1.4949-1.0745 2.5694t-2.5694 1.0745zm-2.1022 59.889v-47.837h4.2978v47.837z"/><path d="m769.56 406.67v-27.843q0-17.238-12.426-17.238-6.9139 0-11.352 5.092-4.438 5.0453-4.438 12.52v27.469h-4.2978v-47.837h4.2978v8.6891h0.18686q5.2322-9.857 16.35-9.857 7.7548 0 11.866 5.1854 4.111 5.1387 4.111 14.715v29.104z"/><path d="m826.51 403.12q0 13.501-5.8862 19.761-5.8862 6.2599-18.313 6.2599-6.9139 0-14.248-3.6438v-4.4847q7.5679 4.2044 14.342 4.2044 19.807 0 19.807-20.929v-6.2132h-0.18687q-5.6526 9.7636-17.238 9.7636-8.8292 0-14.435-6.4-5.5592-6.4-5.5592-17.845t6.0263-18.686q6.0263-7.2409 15.883-7.2409 10.558 0 15.323 8.7358h0.18687v-7.5679h4.2978zm-4.2978-25.927q0-6.3533-4.2978-10.978-4.2511-4.6248-11.118-4.6248-7.8949 0-12.707 5.9329-4.8117 5.9329-4.8117 15.696 0 9.8103 4.3913 15.276 4.438 5.419 11.679 5.419 7.7081 0 12.286-4.9986 4.5781-4.9986 4.5781-12.24z"/></g></g></svg>
